<svg xmlns="http://www.w3.org/2000/svg" width="45.2cm" height="4.5cm" viewBox="0 0 1281.1 128"><path d="M1281,95.5V46a698.2,698.2,0,0,1-84,22.5c-20.2,4.2-40.6,7.6-61.1,10.6-22.5,3.3-45.1,5.8-67.7,7.7-37.7,3.1-75.5,3.6-113.3,3.3q-30.7-.3-61.4-2.4c-22.8-1.5-45.6-3.8-68.4-6.5-31.1-3.7-61.9-8.6-92.6-14.4-35-6.7-69.6-15.3-104.1-24.3S561.9,26.8,528.2,20.8c-23.5-4.2-47-7.8-70.7-10.6Q429.9,6.8,402,4.8c-20-1.3-40-2.7-60.2-3-1.3,0-2.7.2-3.8-.8H276c-1.6,1.2-3.5.9-5.3.9-24.5.1-48.8,1.9-73.1,4.3C134.7,12.4,72.5,22.7,12.2,42c-2.3.7-4.6,1.6-6.8,2.4h0L0,46.3V129H1281.1V95.5Z" transform="translate(0 -1)" style="fill:#0061ff"/></svg>