<svg xmlns="http://www.w3.org/2000/svg" xmlns:xlink="http://www.w3.org/1999/xlink" width="400" height="400" viewBox="0 0 400 400"><defs><linearGradient id="a" x1="200" y1="400" x2="200" gradientUnits="userSpaceOnUse"><stop offset="0" stop-color="#fff"/><stop offset="1" stop-color="#fff"/></linearGradient><linearGradient id="b" x1="649.4" y1="512.68" x2="795" y2="512.68" gradientUnits="userSpaceOnUse"><stop offset="0" stop-color="#2cf6ff"/><stop offset="1" stop-color="#0061ff"/></linearGradient><linearGradient id="c" x1="686.66" y1="555.43" x2="911.93" y2="555.43" xlink:href="#b"/><linearGradient id="d" x1="680.3" y1="540" x2="940.6" y2="540" gradientUnits="userSpaceOnUse"><stop offset="0" stop-color="#0061ff"/><stop offset="1" stop-color="#2cf6ff"/></linearGradient><linearGradient id="e" x1="811.04" y1="577.02" x2="736.55" y2="489.72" gradientUnits="userSpaceOnUse"><stop offset="0.01" stop-color="#02409e"/><stop offset="1" stop-color="#204cbc" stop-opacity="0"/></linearGradient><linearGradient id="f" x1="811.77" y1="551.61" x2="866.49" y2="577.09" gradientUnits="userSpaceOnUse"><stop offset="0.01" stop-color="#02409e"/><stop offset="0.82" stop-color="#1f4cbb" stop-opacity="0.13"/><stop offset="0.9" stop-color="#204cbc" stop-opacity="0"/></linearGradient><linearGradient id="g" x1="778.28" y1="558.3" x2="778.28" y2="558.3" xlink:href="#b"/><linearGradient id="h" x1="795" y1="528.31" y2="528.31" xlink:href="#b"/><linearGradient id="i" x1="811.72" y1="558.3" x2="811.72" y2="558.3" xlink:href="#b"/></defs><rect width="400" height="400" rx="87.8" style="fill:url(#a)"/><path d="M795,528.3l-16.7,30-16.1-29.2c-9.9-17.9-25.5-29.2-42.5-30.9a35.5,35.5,0,0,0-4.6-.3H700.4S670,500.5,684,528l-34.6-60.9h68.3c27.9,1,53.5,18.1,69.1,46.2Z" transform="translate(-595 -339)" style="fill:url(#b)"/><path d="M889.6,497.9,874,525.3l-27,47.6c-3.3,5.8-8.3,9.2-13.6,9.2h0c-5.4,0-10.3-3.4-13.6-9.4l-8.1-14.4-16.6,30.1.2.3c8.4,15.1,22.6,24.2,38,24.2h.1c15.3,0,29.5-8.9,37.9-23.8l23.2-40.8,12.4-21.9a16.2,16.2,0,0,1,1-1.8C923.3,497.5,889.6,497.9,889.6,497.9ZM686.7,532.7l4.2,7.4C690,538.2,688.6,535.8,686.7,532.7Z" transform="translate(-595 -339)" style="fill:url(#c)"/><path d="M907.9,524.6c15.4-27.1-18.3-26.7-18.3-26.7H874.9a48,48,0,0,0-11.9,1.6c-14.1,3.8-26.8,14.3-35.2,29.6l-16.1,29.2-16.6,30.1v0l-.2.3c-8.4,15.1-22.6,24.2-38,24.2h-.1c-15.3,0-29.5-8.9-37.9-23.8l-27.8-48.9h0c-.9-1.9-2.3-4.3-4.2-7.4-.1-.1-.1-.1-.1-.2L684,528c-14-27.5,16.4-30.1,16.4-30.1l42.6,75c3.3,5.8,8.3,9.2,13.6,9.2h0c5.4,0,10.3-3.4,13.6-9.4l8.1-14.4,16.7-30,8.2-15c12.9-23.3,32.7-39,55-44.3a71.3,71.3,0,0,1,16.7-1.9h65.7Z" transform="translate(-595 -339)" style="fill:url(#d)"/><path d="M795,528.3l-16.7,30-16.1-29.2c-9.9-17.9-25.5-29.2-42.5-30.9a35.5,35.5,0,0,0-4.6-.3h-4.4c-.8-3.4-1.4-6.5-1.4-6.5l7.6-24.3h.8c27.9,1,53.5,18.1,69.1,46.2Z" transform="translate(-595 -339)" style="fill:url(#e)"/><path d="M894.5,548.3l-23.2,40.8c-8.4,14.9-22.6,23.8-37.9,23.8h-.1c-15.4,0-29.6-9.1-38-24.2l-.2-.3,16.6-30.1,8.1,14.4c3.3,6,8.2,9.4,13.6,9.4h0c5.3,0,10.3-3.4,13.6-9.2l27-47.6,12.9,12.3Z" transform="translate(-595 -339)" style="opacity:0.92;fill:url(#f)"/><path d="M778.3,558.3" transform="translate(-595 -339)" style="fill:url(#g)"/><path d="M795,528.3" transform="translate(-595 -339)" style="fill:url(#h)"/><path d="M811.7,558.3" transform="translate(-595 -339)" style="fill:url(#i)"/></svg>