<svg xmlns="http://www.w3.org/2000/svg" xmlns:xlink="http://www.w3.org/1999/xlink" width="886" height="400" viewBox="0 0 886 400"><defs><linearGradient id="a" x1="443" y1="400" x2="443" gradientUnits="userSpaceOnUse"><stop offset="0" stop-color="#fff"/><stop offset="1" stop-color="#fff"/></linearGradient><linearGradient id="b" x1="430.99" y1="516.03" x2="569.03" y2="516.03" gradientUnits="userSpaceOnUse"><stop offset="0" stop-color="#2cf6ff"/><stop offset="1" stop-color="#0061ff"/></linearGradient><linearGradient id="c" x1="466.31" y1="553.54" x2="679.88" y2="553.54" xlink:href="#b"/><linearGradient id="d" x1="460.28" y1="540" x2="707.06" y2="540" gradientUnits="userSpaceOnUse"><stop offset="0" stop-color="#0061ff"/><stop offset="1" stop-color="#2cf6ff"/></linearGradient><linearGradient id="e" x1="581.08" y1="574.39" x2="513.81" y2="495.55" gradientUnits="userSpaceOnUse"><stop offset="0.01" stop-color="#02409e"/><stop offset="1" stop-color="#204cbc" stop-opacity="0"/></linearGradient><linearGradient id="f" x1="584.35" y1="548.82" x2="637.12" y2="573.39" gradientUnits="userSpaceOnUse"><stop offset="0.01" stop-color="#02409e"/><stop offset="0.82" stop-color="#1f4cbb" stop-opacity="0.13"/><stop offset="0.9" stop-color="#204cbc" stop-opacity="0"/></linearGradient><linearGradient id="g" x1="553.17" y1="556.06" x2="553.17" y2="556.06" xlink:href="#b"/><linearGradient id="h" x1="569.03" y1="529.74" x2="569.03" y2="529.74" xlink:href="#b"/><linearGradient id="i" x1="584.88" y1="556.06" x2="584.88" y2="556.06" xlink:href="#b"/></defs><rect width="886" height="400" rx="87.8" style="fill:url(#a)"/><path d="M569,529.7l-15.8,26.4-15.3-25.6c-9.4-15.8-24.2-25.7-40.3-27.2l-4.3-.2H479.4s-28.9,2.2-15.6,26.4L431,476h64.7c26.5.8,50.8,15.8,65.5,40.5Z" transform="translate(-352 -340)" style="fill:url(#b)"/><path d="M658.7,503.1l-14.7,24-25.7,41.8c-3.1,5.1-7.8,8-12.8,8h-.1c-5.1,0-9.8-3-12.9-8.2l-7.6-12.6-15.7,26.4v.2c8,13.3,21.5,21.2,36,21.3h.2c14.4,0,27.9-7.8,35.9-21l21.9-35.8,11.8-19.1,1-1.6C690.7,502.7,658.7,503.1,658.7,503.1ZM466.3,533.6l4,6.5A52.8,52.8,0,0,0,466.3,533.6Z" transform="translate(-352 -340)" style="fill:url(#c)"/><path d="M676.1,526.5c14.6-23.8-17.4-23.4-17.4-23.4h-14a47.1,47.1,0,0,0-11.2,1.4c-13.4,3.3-25.4,12.5-33.4,26l-15.2,25.6-15.7,26.4-.2.2v-.2l-.2.2c-7.9,13.3-21.4,21.2-35.9,21.3h-.2c-14.5,0-27.9-7.8-36-21l-26.2-42.8a.1.1,0,0,1-.1-.1,52.8,52.8,0,0,0-4-6.5c0-.1,0-.1-.1-.2l-2.4-3.9c-13.3-24.2,15.6-26.4,15.6-26.4l40.3,65.8c3.2,5.1,7.8,8,12.9,8h0c5.1,0,9.8-3,12.9-8.2l7.7-12.6L569,529.7l7.8-13.1c12.2-20.4,31-34.3,52.1-38.9a76.4,76.4,0,0,1,15.8-1.7h62.4Z" transform="translate(-352 -340)" style="fill:url(#d)"/><path d="M569,529.7l-15.8,26.4-15.3-25.6c-9.4-15.8-24.2-25.7-40.3-27.2l-4.3-.2h-4.2l-1.3-5.7L495,476h.7c26.5.8,50.8,15.8,65.5,40.5Z" transform="translate(-352 -340)" style="fill:url(#e)"/><path d="M663.3,547.2,641.4,583c-8,13.2-21.5,21-35.9,21h-.2c-14.5-.1-28-8-36-21.3v-.2l15.7-26.4,7.6,12.6c3.1,5.2,7.8,8.2,12.9,8.2h.1c5,0,9.7-2.9,12.8-8L644,527.1l12.2,10.8Z" transform="translate(-352 -340)" style="opacity:0.92;fill:url(#f)"/><path d="M553.2,556.1" transform="translate(-352 -340)" style="fill:url(#g)"/><path d="M569,529.7" transform="translate(-352 -340)" style="fill:url(#h)"/><path d="M584.9,556.1" transform="translate(-352 -340)" style="fill:url(#i)"/><path d="M748.8,591l-22.6-85.5h17.6l16.5,63.4,17.8-63.4h14.6l17.9,63.3,16.2-63.3h16.3L820.6,591H801.4l-16.2-56.7-16,56.7Z" transform="translate(-352 -340)" style="fill:#080a2b"/><path d="M859.6,567c2.1,7.6,7.8,11.5,17.2,11.5,6,0,10.6-2.1,13.7-6.2l12.7,7.4c-6.1,8.7-14.9,13-26.7,13-10.1,0-18.2-3-24.3-9.1s-9.1-13.8-9.1-23.1,3-16.9,9-23,13.8-9.2,23.2-9.2,16.4,3.1,22.2,9.2,8.7,13.9,8.7,23a38.3,38.3,0,0,1-.6,6.5Zm-.3-12.2h31.2c-.9-4.2-2.8-7.3-5.6-9.3a15.5,15.5,0,0,0-9.6-3.1,16.5,16.5,0,0,0-10.5,3.3A15.2,15.2,0,0,0,859.3,554.8Z" transform="translate(-352 -340)" style="fill:#080a2b"/><path d="M952.7,528.3a27.8,27.8,0,0,1,21.1,9.3c5.8,6.2,8.7,13.9,8.7,22.9s-2.9,16.7-8.7,22.9a27.8,27.8,0,0,1-21.1,9.3c-8.5,0-15.1-2.9-19.7-8.9V591H917.2V505.5H933v31.7C937.6,531.2,944.2,528.3,952.7,528.3Zm-15,44.6a16.4,16.4,0,0,0,12.1,4.8,17.2,17.2,0,1,0,0-34.4,16.4,16.4,0,0,0-12.1,4.8c-3.2,3.2-4.7,7.4-4.7,12.4S934.5,569.7,937.7,572.9Z" transform="translate(-352 -340)" style="fill:#080a2b"/><path d="M1001.5,522.6a9.3,9.3,0,0,1-6.8-2.8,9.4,9.4,0,0,1,0-13.6,9.3,9.3,0,0,1,13.7,0,9.6,9.6,0,0,1-6.9,16.4ZM993.7,591V530h15.7v61Z" transform="translate(-352 -340)" style="fill:#080a2b"/><path d="M1056.7,519c-8.7-.7-13,2.8-13,10.4v.6h13v15.1h-13V591H1028V545.1h-8.8V530h8.8v-.6c0-8.7,2.4-15.2,7.2-19.7s11.9-6.4,21.5-5.9Z" transform="translate(-352 -340)" style="fill:#080a2b"/><path d="M1072.1,591V501.9h15.7V591Z" transform="translate(-352 -340)" style="fill:#080a2b"/><path d="M1143.3,530H1159v61h-15.7v-6.8c-3.9,5.7-9.9,8.5-18.2,8.5a22.2,22.2,0,0,1-16.6-6.7c-4.3-4.5-6.5-10.6-6.5-18.5V530h15.7v35.5q0,6.2,3.3,9.3a12,12,0,0,0,8.8,3.3,13,13,0,0,0,9.8-3.8c2.4-2.5,3.7-6.3,3.7-11.4Z" transform="translate(-352 -340)" style="fill:#080a2b"/></svg>